<?xml version="1.0" ?>

<!-- Uploaded to: SVG Repo, www.svgrepo.com, Generator: SVG Repo Mixer Tools -->
<svg width="800px" height="800px" viewBox="0 0 512 512" id="Layer_1" version="1.1" xml:space="preserve" xmlns="http://www.w3.org/2000/svg" xmlns:xlink="http://www.w3.org/1999/xlink">

<style type="text/css">
	.st0{fill:#7e22ce;}
</style>

<g>

<path class="st0" d="M315.7,322.4c-0.9,0.3-1.9,0.6-2.8,0.9c-3.7,1.2-7.4,2.3-11.2,3.3v52.2H166.6v-46.3c-3.3-0.6-6.6-1.3-9.9-1.9   c-1.4-0.3-2.7-0.6-4.1-0.9v49.2h-41.3v54.7c0,15.8,12.8,28.6,28.6,28.6h8.2v-41.6c0-3.9,3.1-7,7-7s7,3.1,7,7V462h25.6v-41.6   c0-3.9,3.1-7,7-7s7,3.1,7,7V462h25.6v-41.6c0-3.9,3.1-7,7-7s7,3.1,7,7V462h25.6v-41.6c0-3.9,3.1-7,7-7s7,3.1,7,7V462h25.6v-41.6   c0-3.9,3.1-7,7-7s7,3.1,7,7V462h8.2c15.8,0,28.6-12.8,28.6-28.6v-54.7h-41.3V322.4z"/>

<path class="st0" d="M93.9,179.6c-3.9,0-7,3.1-7,7s3.1,7,7,7h347.3c0.2-2.3,0.3-4.7,0.3-7c-0.1-2.3-0.2-4.7-0.5-7H93.9z"/>

<path class="st0" d="M203.1,127.7c96.2,0,181,17.1,230.4,43.1c3.1,1.6,5.5,4,7.1,6.6c-1.6-10.3-5.6-20.8-11.9-31.5l2.6-1.1   C384.8,87.5,308,50,221.1,50c-46.2,0-89.5,10.6-126.9,29.1c-34.1,16.8-56,43-65.8,71.8c10.6-4.1,23.3-7.7,38.2-10.6   C106.8,132.2,153.4,127.7,203.1,127.7z"/>

<path class="st0" d="M53.6,186.6c0-3.9-3.1-7-7-7H22.7c-0.1,2.3-0.3,4.7-0.3,7s0.1,4.7,0.3,7h23.9   C50.4,193.6,53.6,190.5,53.6,186.6z"/>

<path class="st0" d="M440.8,179.1c0,0.2,0,0.3,0.1,0.5h0C440.9,179.4,440.9,179.3,440.8,179.1z"/>

<path class="st0" d="M434.9,201.6c-0.1,0-0.1,0.1-0.2,0.1c-0.1,0.1-0.2,0.1-0.3,0.2c-0.3,0.2-0.6,0.4-0.9,0.5   c0.3-0.2,0.6-0.3,0.9-0.5c-0.3,0.2-0.6,0.4-0.9,0.5c-1.4,0.8-2.9,1.5-4.4,2.3c-13.6,6.7-29.7,12.8-47.8,18.1   c-11.9,3.5-24.7,6.7-38.2,9.4c9.1-1.9,17.9-3.9,26.4-6.1c-8.4,2.2-17.2,4.3-26.4,6.2c-15,3.1-31,5.7-47.7,7.7   c16.7-2.1,32.7-4.7,47.7-7.7c-41.1,8.4-88.9,13.3-140.1,13.3c-30.5,0-59.9-1.7-87.4-4.9c-3.7-0.4-7.4-0.9-11.1-1.4   c-1.8-0.2-3.5-0.5-5.3-0.7c1.5,0.2,3,0.4,4.5,0.6c-1.5-0.2-3-0.4-4.5-0.6c-0.5-0.1-1-0.1-1.4-0.2c0,0-0.1,0-0.1,0   c-2.8-0.4-5.5-0.8-8.3-1.2c-7.8-1.2-15.5-2.6-22.9-4.1c-10.4-2.1-19.7-4.5-28-7.1c5,1.6,10.4,3.1,16.1,4.5   c-5.7-1.4-11.1-2.9-16.1-4.5c-1.1-0.3-2.1-0.7-3.2-1c1,0.4,2.1,0.7,3.2,1c-1.4-0.4-2.7-0.9-4-1.3c-1.5-0.5-3-1-4.5-1.6   c-0.6-0.2-1.1-0.4-1.7-0.6c0,0,0,0,0,0c4.9,14.4,12.8,28.1,23.8,40.4c11,12.2,25,23,42,31.4c20.2,10,42.2,17.7,65.4,22.6   c16.9,3.6,34.5,5.8,52.6,6.3c3,0.1,5.9,0.1,8.9,0.1c11.9,0,23.6-0.7,35-2.1c18.2-2.1,35.8-6,52.6-11.3   c49.9-15.7,92.6-44.5,122.6-81.5l-2.6-1.1c7-10.5,11.1-21.2,12.4-32.2C439.7,197.6,437.6,199.9,434.9,201.6z"/>

<path class="st0" d="M221.1,337.2c-3.1,0-6-0.1-8.9-0.1v18.3h43.9v-20.1C244.6,336.6,232.8,337.2,221.1,337.2z"/>

<path class="st0" d="M444.7,139.2l9.1,11.3l-5.9,2.5c1.8,4.2,3.3,8.4,4.4,12.6h0.9l1.5,11.9c0,0.1,0,0.3,0.1,0.4l1.9,15.7h-1.5   c0,0.4-0.1,0.9-0.1,1.3l-1.2,12.7h-1c-1.1,4.3-2.6,8.6-4.5,12.8l5.5,2.3l-9.2,11.3l44.9,18.9V120.3L444.7,139.2z"/>

</g>

</svg>