<?xml version="1.0" ?>

<!-- Uploaded to: SVG Repo, www.svgrepo.com, Generator: SVG Repo Mixer Tools -->
<svg width="800px" height="800px" viewBox="0 0 512 512" id="Layer_1" version="1.1" xml:space="preserve" xmlns="http://www.w3.org/2000/svg" xmlns:xlink="http://www.w3.org/1999/xlink">

<style type="text/css">
	.st0{fill:#7e22ce;}
</style>

<g>

<path class="st0" d="M154.6,240.9l-0.1-0.5c-8.2,5.3-17.8,8.3-28.2,8.3c-11.6,0-22.5-3.8-31.3-10.4   c16.1,57.9,58.2,103.6,111.5,121.3C181.5,335.4,162.5,292.7,154.6,240.9z"/>

<path class="st0" d="M168.5,238.8c8.7,56.9,31.1,102,59.5,120.2c8.5,5.4,17.5,8.4,26.8,8.7c0.4,0,0.8,0,1.2,0V234.8   c-11,13-27.4,21.3-45.7,21.3C194.1,256.1,179.3,249.5,168.5,238.8z"/>

<path class="st0" d="M270,246.9v118.6c4.8-1.5,9.5-3.7,14-6.6c28.4-18.2,50.8-63.3,59.5-120.2c-10.8,10.7-25.7,17.2-41.9,17.2   C290,256.1,279.2,252.7,270,246.9z"/>

<path class="st0" d="M357.5,240.4l-0.1,0.5c-7.9,51.7-26.8,94.4-51.9,118.7c53.3-17.8,95.4-63.5,111.5-121.3   c-8.8,6.6-19.7,10.4-31.3,10.4C375.3,248.7,365.6,245.7,357.5,240.4z"/>

<path class="st0" d="M164.5,190.8c0,1.5,0,3,0.1,4.4c0,0.3,0,0.6,0,0.9c0,1.3,0.1,2.6,0.1,3.8c0,0,0,0,0,0   c1.8,23.6,21.5,42.1,45.6,42.1c15.6,0,29.4-7.8,37.6-19.8c-3.8-7.8-5.9-16.6-5.9-25.9V26.7c-43.9,10.1-77.5,67.9-77.5,158.9   C164.5,187.4,164.5,189.1,164.5,190.8z"/>

<path class="st0" d="M301.7,242.1c24.1,0,43.9-18.7,45.6-42.4v-0.1c0-1,0.1-2.1,0.1-3.1v-0.2c0-0.6,0-1.1,0-1.7v-0.1   c0-1.2,0.1-2.3,0.1-3.5c0-0.7,0-1.3,0-1.9c0-1.1,0-2.3,0-3.4c0-99.8-40.3-159.6-90.4-160.5c-0.4,0-0.8,0-1.2,0v171.3   C256,221.6,276.5,242.1,301.7,242.1z"/>

<path class="st0" d="M309.7,32.3c8.7,7.7,16.6,17.4,23.4,28.9c18.6,31.3,28.4,74.3,28.4,124.5c0,1.2,0,2.4,0,3.5c0,0.7,0,1.3,0,2   c0,1.2,0,2.3-0.1,3.5v0.1c0,0.6,0,1.1,0,1.7l0,0.4c0,1-0.1,2-0.1,3v0.3l0,0.5c-0.5,7.2-2.3,14-5.1,20.2c7,8.5,17.7,13.9,29.6,13.9   c18.8,0,34.4-13.5,37.7-31.3c0.3-2.9,0.5-5.9,0.6-8.8c0-0.5,0-1,0.1-1.5c0.1-2.5,0.1-5,0.1-7.5C424.2,105.4,376.3,51,309.7,32.3z"/>

<path class="st0" d="M126.3,234.7c11.9,0,22.5-5.4,29.6-13.9c-2.6-5.7-4.3-11.8-4.9-18.2l-0.2-0.6v-1.4l-0.3-3.3l0.1-0.3   c0-0.2,0-0.7,0-0.7v-0.2l0-0.5c0-1.5-0.1-3-0.1-4.6c0-1.8,0-3.6,0-5.4c0-45.6,8.2-85.8,23.8-116.2c7.8-15.2,17.2-27.6,27.8-37.1   c-66.4,18.7-114.2,73-114.4,153v0.3c0,3,0.1,6,0.2,9c0.1,3,0.3,5.9,0.6,8.8C91.9,221.2,107.5,234.7,126.3,234.7z"/>

<path class="st0" d="M302.8,401.8h-0.2v-39.2c0-0.1,0-0.2,0-0.2c-3.6,3.2-7.3,6-11,8.4c-1,0.6-2,1.2-2.9,1.8v29.2h-65.1v-29.1   c-1-0.6-2-1.2-3-1.8c-3.8-2.4-7.4-5.2-11-8.4c0,0.1,0,0.1,0,0.2v39.1h-0.2c-6.9,0-12.4,5.6-12.4,12.4v19.4h118.4v-19.4   C315.3,407.3,309.7,401.8,302.8,401.8z"/>

<path class="st0" d="M196.9,474.5c0,6.9,5.6,12.4,12.4,12.4h93.5c6.9,0,12.4-5.6,12.4-12.4v-26.8H196.9V474.5z"/>

</g>

</svg>