<?xml version="1.0" ?>

<!-- Uploaded to: SVG Repo, www.svgrepo.com, Generator: SVG Repo Mixer Tools -->
<svg width="800px" height="800px" viewBox="0 0 512 512" id="Layer_1" version="1.1" xml:space="preserve" xmlns="http://www.w3.org/2000/svg" xmlns:xlink="http://www.w3.org/1999/xlink">

<style type="text/css">
	.st0{fill:#7e22ce;}
</style>

<g>

<circle class="st0" cx="318.7" cy="64.5" r="45.3"/>

<polygon class="st0" points="423.4,193.3 356,137 287.4,137 231.7,209 175.2,215 168.2,215.8 161.3,216.5 156,217.1 159.8,239    161.3,239.3 168.2,240.6 175.2,241.9 248.7,255.7 290.7,209.8 284.3,293.8 246.7,492.9 275.4,492.9 328,326.4 380,492.9    406.7,492.9 376.7,295.7 368.3,208.7 407.7,232 410.2,295.5 436.4,295.7 451.4,233.6 454.8,219.5  "/>

<rect class="st0" height="112.5" width="61.5" x="98" y="335.5"/>

<path class="st0" d="M177.7,266.5h-2.5c0,0,0,0,0,0v-10.4l-14-2.6v13c0,0,0,0,0,0h-65c0,0,0,0,0,0v-96h12.5h0v2.7   c0,4,3.3,7.3,7.3,7.3h25.3c4,0,7.3-3.3,7.3-7.3v-2.7h12.5v31.9l5.5-0.6l8.5-0.9v-37.4c0-3.9-3.1-7-7-7h-19.5v-2.7   c0-4.1-3.3-7.3-7.3-7.3H116c-4,0-7.3,3.3-7.3,7.3v2.7h0H89.2c-3.9,0-7,3.1-7,7v103c0,0,0,0,0,0h-2.5c-12.4,0-22.5,10.1-22.5,22.5   v136.5c0,12.4,10.1,22.5,22.5,22.5H84V328.5c0-3.9,3.1-7,7-7h75.5c3.9,0,7,3.1,7,7V448h4.3c12.4,0,22.5-10.1,22.5-22.5V289   C200.2,276.6,190.1,266.5,177.7,266.5z"/>

<circle class="st0" cx="91" cy="479.8" r="13.1"/>

<circle class="st0" cx="166.5" cy="479.8" r="13.1"/>

</g>

</svg>