<?xml version="1.0" ?>

<!-- Uploaded to: SVG Repo, www.svgrepo.com, Generator: SVG Repo Mixer Tools -->
<svg width="800px" height="800px" viewBox="0 0 512 512" id="Layer_1" version="1.1" xml:space="preserve" xmlns="http://www.w3.org/2000/svg" xmlns:xlink="http://www.w3.org/1999/xlink">
<style type="text/css">
.st0{fill:#7e22ce;}
</style>

<g>

<path class="st0" d="M378.8,87.3H133.2c-17.4,0-31.5,14.1-31.5,31.5v272.1c0,17.4,14.1,31.5,31.5,31.5h245.6   c17.4,0,31.5-14.1,31.5-31.5V118.8C410.3,101.4,396.2,87.3,378.8,87.3z M139.5,176h101.1v150H139.5V176z M174.2,391.3   c-9.8,0-17.8-8-17.8-17.8c0-9.8,8-17.8,17.8-17.8c9.8,0,17.8,8,17.8,17.8C192,383.4,184,391.3,174.2,391.3z M228,386.7   c-7.3,0-13.1-5.9-13.1-13.1s5.9-13.1,13.1-13.1s13.1,5.9,13.1,13.1S235.3,386.7,228,386.7z M284,386.7c-7.3,0-13.1-5.9-13.1-13.1   s5.9-13.1,13.1-13.1s13.1,5.9,13.1,13.1S291.3,386.7,284,386.7z M337.8,391.3c-9.8,0-17.8-8-17.8-17.8c0-9.8,8-17.8,17.8-17.8   c9.8,0,17.8,8,17.8,17.8C355.7,383.4,347.7,391.3,337.8,391.3z M372.5,326.1H271.5V176h101.1V326.1z M372.5,147H139.5v-30.4h233.1   V147z"/>

<polygon class="st0" points="318.3,53 193.7,53 188.3,73.3 323.7,73.3  "/>

<path class="st0" d="M158.5,452.3c0,3.7,3,6.7,6.7,6.7H198c3.7,0,6.7-3,6.7-6.7v-15.9h-46.1V452.3z"/>

<path class="st0" d="M307.4,452.3c0,3.7,3,6.7,6.7,6.7h32.8c3.7,0,6.7-3,6.7-6.7v-15.9h-46.1V452.3z"/>

<path class="st0" d="M37.8,167.8v70.7v0H22.2V297h44.6v-58.4h-15v0v-63.7h35.9v-14H44.8C40.9,160.8,37.8,164,37.8,167.8z"/>

<path class="st0" d="M474.2,238.6L474.2,238.6v-70.7c0-3.9-3.1-7-7-7h-42.9v14h35.9v63.7v0h-15V297h44.6v-58.4H474.2z"/>

</g>

</svg>