<?xml version="1.0" ?>

<!-- Uploaded to: SVG Repo, www.svgrepo.com, Generator: SVG Repo Mixer Tools -->
<svg width="800px" height="800px" viewBox="0 0 512 512" id="Layer_1" version="1.1" xml:space="preserve" xmlns="http://www.w3.org/2000/svg" xmlns:xlink="http://www.w3.org/1999/xlink">
<style type="text/css">
.st0{fill:#7e22ce;}
</style>

<g>

<path class="st0" d="M436.3,125H99.9c-23,0-42.6,16.6-46.5,39.2L29.2,305.7c-4.9,28.8,17.3,55.1,46.5,55.1h17.8   c0-22.2,18-40.2,40.2-40.2c22.2,0,40.2,18,40.2,40.2h164.3c0-22.2,18-40.2,40.2-40.2c22.2,0,40.2,18,40.2,40.2h17.8   c26.1,0,47.2-21.1,47.2-47.2V172.2C483.5,146.1,462.4,125,436.3,125z M380.7,178.1c0-7,5.6-12.6,12.6-12.6h29.2   c7,0,12.6,5.7,12.6,12.6v62.9c0,7-5.7,12.6-12.6,12.6h-29.2c-7,0-12.6-5.7-12.6-12.6V178.1z M294.5,178.1c0-7,5.6-12.6,12.6-12.6   h29.2c7,0,12.6,5.7,12.6,12.6v62.9c0,7-5.7,12.6-12.6,12.6h-29.2c-7,0-12.6-5.7-12.6-12.6V178.1z M208.4,178.1   c0-7,5.7-12.6,12.6-12.6h29.2c7,0,12.6,5.7,12.6,12.6v62.9c0,7-5.7,12.6-12.6,12.6H221c-7,0-12.6-5.7-12.6-12.6V178.1z    M155.9,277.7c-2.9,17.2-19.1,29.9-38.1,29.9H75.7c-2.6,0-4.2-1.2-5.2-2.2c-0.9-1-1.9-2.7-1.5-5l24.3-129.8c0.6-3,3.4-5.2,6.6-5.2   h75.2L155.9,277.7z M435.2,301.6H208.4c-3.9,0-7-3.1-7-7c0-3.9,3.1-7,7-7h226.8c3.9,0,7,3.1,7,7C442.2,298.4,439,301.6,435.2,301.6   z"/>

<path class="st0" d="M133.7,334.6c-14.5,0-26.2,11.7-26.2,26.2s11.7,26.2,26.2,26.2c14.5,0,26.2-11.7,26.2-26.2   S148.1,334.6,133.7,334.6z"/>

<path class="st0" d="M378.3,334.6c-14.5,0-26.2,11.7-26.2,26.2s11.7,26.2,26.2,26.2c14.5,0,26.2-11.7,26.2-26.2   S392.8,334.6,378.3,334.6z"/>

</g>

</svg>