<?xml version="1.0" ?>

<!-- Uploaded to: SVG Repo, www.svgrepo.com, Generator: SVG Repo Mixer Tools -->
<svg width="800px" height="800px" viewBox="0 0 512 512" id="Layer_1" version="1.1" xml:space="preserve" xmlns="http://www.w3.org/2000/svg" xmlns:xlink="http://www.w3.org/1999/xlink">
<style type="text/css">
.st0{fill:#7e22ce;}
</style>

<g>

<path class="st0" d="M142,121.2H85.7c-12.1,0-22,9.9-22,22v48H142V121.2z"/>

<rect class="st0" height="70" width="200" x="156" y="121.2"/>

<path class="st0" d="M426.3,121.2H370v70h78.3v-48C448.3,131,438.5,121.2,426.3,121.2z"/>

<path class="st0" d="M63.7,423.8c0,12.2,9.9,22,22,22h340.7c12.1,0,22-9.8,22-22V205.2H63.7V423.8z M273.9,397.5l-10.2-35.6   l12.6-10.4l33.1,33.1C299,391.4,286.9,396,273.9,397.5z M167.4,314.1l12.9,3.7l39.5,11.3l24.3-29.5l-41.8-41.8l-16.9-16.9   l16.2-16.2l31.1,12.1l47.9,18.7l15.2-18.4l3.7-4.5c2.9-3.5,7-5.7,11.5-6.1l22.8-2.2c10.7-1,19.6,7.9,18.6,18.6l-2.2,22.9   c-0.4,4.5-2.6,8.6-6.1,11.5l-3.8,3.2l-19,15.7l19.8,50.7l11,28.4l-16.2,16.2L320.6,376l-43.4-43.4L247.7,357l11.7,41l3.3,11.4   l-8.1,8.1l-28.3-28.4l-9.8-9.8c-1.9,0.2-3.8,0.1-5.6-0.3c-3.1-0.7-6-2.2-8.4-4.6c-2.5-2.5-4.1-5.7-4.7-9c-0.3-1.7-0.4-3.4-0.2-5.1   l-8.3-8.3l-29.9-29.9L167.4,314.1z M181,303.4c1.6-12.6,6.1-24.3,12.7-34.5l31.6,31.6l-10.4,12.6l-30.7-8.8L181,303.4z M94.7,346.8   c0-3.9,3.1-7,7-7s7,3.1,7,7v36.8c0,9.5,7.7,17.3,17.3,17.3H165c3.9,0,7,3.1,7,7s-3.1,7-7,7h-39.1c-17.2,0-31.3-14-31.3-31.3V346.8z   "/>

<path class="st0" d="M179,96.2c0-8.3-3.4-15.8-8.8-21.2c-5.4-5.4-12.9-8.8-21.2-8.8c-16.6,0-30,13.4-30,30v11h60V96.2z"/>

<path class="st0" d="M393,96.2c0-8.3-3.4-15.8-8.8-21.2c-5.4-5.4-12.9-8.8-21.2-8.8c-16.6,0-30,13.4-30,30v11h60V96.2z"/>

</g>

</svg>