<?xml version="1.0" ?>

<!-- Uploaded to: SVG Repo, www.svgrepo.com, Generator: SVG Repo Mixer Tools -->
<svg width="800px" height="800px" viewBox="0 0 512 512" id="Layer_1" version="1.1" xml:space="preserve" xmlns="http://www.w3.org/2000/svg" xmlns:xlink="http://www.w3.org/1999/xlink">
<style type="text/css">
.st0{fill:#7e22ce;}
</style>

<g>

<path class="st0" d="M124.5,277l-75,28.2v44.9h24.8v11H227v-175h-66.5L124.5,277z M210,213.2v62.6h-56l24.8-62.6H210z"/>

<path class="st0" d="M74.3,386.2H49.5v41.7h28v0c0-24.4,19.9-44.3,44.3-44.3c24.4,0,44.3,19.9,44.3,44.3v0H227v-52.7H74.3V386.2z"/>

<path class="st0" d="M241,361.2h181.5v-175H241V361.2z M345.1,213.2h41.7v62.6h-41.7V213.2z M269.7,213.2h41.7v62.6h-41.7V213.2z"/>

<path class="st0" d="M241,427.8h73.8v0c0-24.4,19.9-44.3,44.3-44.3c24.4,0,44.3,19.9,44.3,44.3v0h19v-52.7H241V427.8z"/>

<rect class="st0" height="89.3" width="26" x="436.5" y="262.4"/>

<path class="st0" d="M359.2,397.5c-16.8,0-30.3,13.6-30.3,30.3s13.6,30.3,30.3,30.3c16.8,0,30.3-13.6,30.3-30.3   S375.9,397.5,359.2,397.5z"/>

<path class="st0" d="M121.8,397.5c-16.8,0-30.3,13.6-30.3,30.3s13.6,30.3,30.3,30.3c16.8,0,30.3-13.6,30.3-30.3   S138.6,397.5,121.8,397.5z"/>

<rect class="st0" height="42.9" width="214.6" x="184.2" y="129.3"/>

<rect class="st0" height="55" width="30.6" x="216.1" y="60.3"/>

<rect class="st0" height="38.5" width="56.9" x="260.7" y="76.8"/>

<rect class="st0" height="61.5" width="34.3" x="331.6" y="53.8"/>

</g>

</svg>