<?xml version="1.0" ?>

<!-- Uploaded to: SVG Repo, www.svgrepo.com, Generator: SVG Repo Mixer Tools -->
<svg width="800px" height="800px" viewBox="0 0 512 512" id="Layer_1" version="1.1" xml:space="preserve" xmlns="http://www.w3.org/2000/svg" xmlns:xlink="http://www.w3.org/1999/xlink">
<style type="text/css">
.st0{fill:#7e22ce;}
</style>

<g>

<path class="st0" d="M177.9,173.6L177.9,173.6c17.8-3.3,39.3-5.6,64.5-5.6c13.7,0,26.3,0.7,37.8,1.8l14-31.5   c-16.3-2.1-33.7-3.2-51.8-3.2c-31.7,0-60.1,2-84.3,7.6L177.9,173.6z"/>

<path class="st0" d="M408.3,204.5c-9-27.6-35.6-46.5-72.2-57.5l-13.3,30c24.9,6.4,40.3,14.6,46.8,20.2c2.5,2.2,3.8,5.3,3.8,8.3   c0,3.1-1.3,6.1-3.8,8.3c-8.6,7.4-33.1,19.6-74.5,25.7l-4.8,10.9c-3.4,7.6-10.9,12.5-19.2,12.5c-3,0-5.8-0.6-8.5-1.8   c-5.1-2.3-9.1-6.4-11.1-11.6c-0.8-2.1-1.3-4.2-1.4-6.4c-2.6,0.1-5.1,0.1-7.8,0.1c-9.2,0-17.9-0.3-26.1-0.8c-0.1,0.5-0.2,1-0.3,1.6   c-1.2,5.5-4.4,10.2-9.1,13.2c-3.4,2.2-7.3,3.3-11.4,3.3c-7.2,0-13.8-3.6-17.7-9.6l-9.9-15.3h0c-28.4-6.5-45.9-15.6-52.8-21.7   c-5.1-4.4-5.1-12.3,0-16.6c3.8-3.3,10.6-7.5,20.6-11.6L117.8,158c-18.3,10.5-32.3,25.5-41.5,46.6L61,272.9   c-7.3,52.5,8.5,105.5,43.3,145.5c34.8,40,85.1,62.9,138.1,62.9s103.3-22.9,138.1-62.9s50.6-93,43.3-145.5L408.3,204.5z    M147.8,389.7c-1.3,1.2-3,1.7-4.6,1.7c-2,0-3.9-0.8-5.3-2.4c-25.8-29.6-37.8-68.9-33-107.9c0.5-3.8,4-6.6,7.8-6.1   c3.8,0.5,6.6,4,6.1,7.8c-4.3,35,6.5,70.4,29.6,97C151,382.7,150.7,387.2,147.8,389.7z"/>

<path class="st0" d="M472.3,41h-82.2c-0.1,0-0.2,0-0.3,0c-1.3-5.9-6.5-10.2-12.8-10.2h-22.4c-5.2,0-9.9,3.1-12,7.8l-11.8,26.5   c-2.5,5.7-0.7,12.3,4.2,15.9c0,0.1-0.1,0.2-0.1,0.3l-70.1,158c-1.6,3.5,0,7.7,3.6,9.2c0.9,0.4,1.9,0.6,2.8,0.6   c2.7,0,5.2-1.6,6.4-4.2l70.1-158c0-0.1,0.1-0.2,0.1-0.3c5.9,1.2,12-1.8,14.6-7.6l2.7-6c2.1-4.7,6.8-7.8,12-7.8   c6.3,0,11.5-4.4,12.8-10.2c0.1,0,0.2,0,0.3,0h82.2c3.9,0,7-3.1,7-7S476.1,41,472.3,41z"/>

<path class="st0" d="M189.5,243.3c1.3,2.1,3.6,3.2,5.9,3.2c1.3,0,2.6-0.4,3.8-1.1c3.2-2.1,4.2-6.4,2.1-9.7l-74.9-116.2l64.8-41.8   c-25.8-40-79.1-51.5-119-25.7c-40,25.8-51.5,79.1-25.7,119l68.2-43.9L189.5,243.3z"/>

</g>

</svg>