<?xml version="1.0" ?>

<!-- Uploaded to: SVG Repo, www.svgrepo.com, Generator: SVG Repo Mixer Tools -->
<svg width="800px" height="800px" viewBox="0 0 512 512" id="Layer_1" version="1.1" xml:space="preserve" xmlns="http://www.w3.org/2000/svg" xmlns:xlink="http://www.w3.org/1999/xlink">
<style type="text/css">
	.st0{fill:#7e22ce;}
</style>

<g>

<path class="st0" d="M356.4,231c-21.6-18.6-46.8-33.1-74.5-42.2v14.3H151.1c-4.2,59.7-40.9,112.6-96,137.3   c25,26.3,56.6,46.5,92.1,57.8c20.9,6.7,43.3,10.3,66.4,10.3c15.5,0,30.6-1.6,45.2-4.7c41.7-8.8,79.1-29.4,108.3-58.3V240.9   c-1.3-1.3-2.5-2.5-3.8-3.7C361,235.1,358.7,233,356.4,231z M195.7,330c-21.5,0-38.9-17.4-38.9-38.9s17.4-38.9,38.9-38.9   s38.9,17.4,38.9,38.9S217.2,330,195.7,330z M313.3,330c-21.5,0-38.9-17.4-38.9-38.9s17.4-38.9,38.9-38.9s38.9,17.4,38.9,38.9   S334.8,330,313.3,330z"/>

<path class="st0" d="M137.5,191.5L137.5,191.5c-45.2,16.8-83.4,48.1-108.8,88.3c-5.2,8.2-5.2,18.6,0,26.8c5,8,10.6,15.6,16.6,22.8   l2.7-1.2C102.4,304.5,137.5,250.8,137.5,191.5z"/>

<polygon class="st0" points="413.9,206.2 381.1,239 381.1,368.3 419.8,368.3 419.8,244.9 487.2,244.9 487.2,206.2  "/>

<path class="st0" d="M460.3,265.2c-6.5,0-11.7,11.5-11.7,25.8c0,7.4,1.4,14.1,3.7,18.8h-18.5v14h18.5c-2.3,4.7-3.7,11.4-3.7,18.8   c0,14.2,5.2,25.8,11.7,25.8c6.5,0,11.7-11.5,11.7-25.8c0-9.4-2.3-17.7-5.7-22.2c0.6-1.1,1-2.3,1-3.6c0-1.3-0.4-2.6-1-3.6   c3.4-4.5,5.7-12.7,5.7-22.2C472,276.8,466.8,265.2,460.3,265.2z"/>

<path class="st0" d="M147.1,412.8v6.5c0,12.8,10.4,23.2,23.2,23.2h65.2c12.8,0,23.2-10.4,23.2-23.2V418c-14.8,2.9-30,4.4-45.2,4.4   C190.9,422.4,168.6,419.2,147.1,412.8z"/>

<path class="st0" d="M267.9,152.3v36.8H144.4v-36.8h46.8v-24.7c3.7,1.3,7.7,1.9,11.7,1.9c4,0,8-0.7,11.7-1.9v24.7H267.9z"/>

<path class="st0" d="M191.3,112.3c3.4,2.1,7.4,3.3,11.7,3.3c4.3,0,8.3-1.2,11.7-3.3c6.3-3.9,10.5-10.9,10.5-18.9   c0-12.3-9.9-22.2-22.2-22.2c-9.6,0-17.8,6.1-20.9,14.7c-0.9,2.3-1.3,4.9-1.3,7.5c0,6.2,2.6,11.9,6.7,15.9   C188.6,110.4,189.9,111.4,191.3,112.3z"/>

<path class="st0" d="M96.8,125.7h23.1c3.5,0,6.3-2.8,6.3-6.3v-10h44.2c-2.4-4.9-3.6-10.3-3.6-15.9c0-2.5,0.3-5.1,0.8-7.5h-41.4v-10   c0-3.5-2.8-6.3-6.3-6.3H96.8c-3.5,0-6.3,2.9-6.3,6.3v43.5C90.4,122.8,93.3,125.7,96.8,125.7z"/>

</g>

</svg>