<?xml version="1.0" ?>

<!-- Uploaded to: SVG Repo, www.svgrepo.com, Generator: SVG Repo Mixer Tools -->
<svg width="800px" height="800px" viewBox="0 0 512 512" id="Layer_1" version="1.1" xml:space="preserve" xmlns="http://www.w3.org/2000/svg" xmlns:xlink="http://www.w3.org/1999/xlink">
<style type="text/css">
.st0{fill:#7e22ce;}
</style>

<g>

<path class="st0" d="M475.4,104.3h-7.3c-8.4,0-15.1,6.8-15.1,15.1v52.2c0,7,4.8,12.9,11.3,14.6c0,0.2,0,0.3,0,0.5v67.1   c0,6.7-5.5,12.2-12.2,12.2h-22.6h0v-16.7c0-6.4-5.1-11.5-11.5-11.5h-17.7c0.2,1.8,0.2,3.8,0.2,5.8v64.6h17.4   c6.4,0,11.5-5.2,11.5-11.5V280h0H452c14.4,0,26.2-11.7,26.2-26.2v-67.1c0-0.1,0-0.2,0-0.3c7-1.3,12.3-7.5,12.3-14.9v-52.2   C490.5,111,483.7,104.3,475.4,104.3z"/>

<path class="st0" d="M174,137.8h-54.9c-12.5,0-22.7,10.1-22.7,22.7v7.8H174V137.8z"/>

<rect class="st0" height="30.5" width="31.9" x="188" y="137.8"/>

<path class="st0" d="M311.4,160.4c0-12.5-10.2-22.7-22.7-22.7h-54.8v30.5h77.5V160.4z"/>

<path class="st0" d="M90.6,268.4l13.5-13.5c2.7-2.7,2.7-7.2,0-9.9c-2.7-2.7-7.2-2.7-9.9,0l-13.5,13.5c-2.7,2.7-2.7,7.2,0,9.9   c1.4,1.4,3.2,2,5,2S89.3,269.7,90.6,268.4z"/>

<path class="st0" d="M116.3,293.5l-19.4,19.4c-2.7,2.7-2.7,7.2,0,9.9c1.4,1.4,3.2,2.1,5,2.1s3.6-0.7,5-2.1l19.4-19.4   c2.7-2.7,2.7-7.2,0-9.9C123.5,290.8,119,290.8,116.3,293.5z"/>

<path class="st0" d="M123.3,251.7l-36.1,36.1c-2.7,2.7-2.7,7.2,0,9.9c1.4,1.4,3.2,2.1,5,2.1s3.6-0.7,5-2.1l36.1-36.1   c2.7-2.7,2.7-7.2,0-9.9S126,249,123.3,251.7z"/>

<path class="st0" d="M284.6,268.4l13.5-13.5c2.7-2.7,2.7-7.2,0-9.9c-2.7-2.7-7.2-2.7-9.9,0l-13.5,13.5c-2.7,2.7-2.7,7.2,0,9.9   c1.4,1.4,3.2,2,5,2C281.5,270.4,283.3,269.7,284.6,268.4z"/>

<path class="st0" d="M310.3,293.5l-19.4,19.4c-2.7,2.7-2.7,7.2,0,9.9c1.4,1.4,3.1,2.1,4.9,2.1c1.8,0,3.6-0.7,4.9-2.1l19.4-19.4   c2.7-2.7,2.7-7.2,0-9.9C317.4,290.8,313,290.8,310.3,293.5z"/>

<path class="st0" d="M317.3,251.7l-36.1,36.1c-2.7,2.7-2.7,7.2,0,9.9c1.4,1.4,3.2,2.1,5,2.1c1.8,0,3.6-0.7,4.9-2.1l36.1-36.1   c2.7-2.7,2.7-7.2,0-9.9C324.4,249,320,249,317.3,251.7z"/>

<path class="st0" d="M325.1,182.3H82.8c-33.9,0-61.3,27.5-61.3,61.3v57.6h0c1.5,46.8,39.8,84.2,86.9,84.2   c16.3,0,31.5-4.5,44.6-12.3c24.7-14.7,41.4-41.4,42.4-72h17c1,30.6,17.7,57.2,42.4,72c13,7.8,28.3,12.3,44.6,12.3   c45.7,0,83.2-35.3,86.7-80c0.1-1.4,0.2-2.8,0.2-4.2h0.1v-57.6c0-2-0.1-3.9-0.3-5.8C383.2,206.7,357,182.3,325.1,182.3z    M352.5,299.2l0,1c-0.9,28.8-24.2,51.4-53.1,51.4s-52.2-22.6-53.1-51.4l-1-32.8h-82.7l-1,32.8c-0.9,28.8-24.2,51.4-53.1,51.4   c-28.9,0-52.2-22.6-53.1-51.4l0-1v-55.6c0-15.1,12.3-27.5,27.5-27.5h242.2c15.1,0,27.5,12.3,27.5,27.5V299.2z"/>

<path class="st0" d="M247.7,385.2c-20.8-12.4-36.1-31.5-43.7-53.6c-7.7,22.1-22.9,41.2-43.7,53.6c-6.8,4.1-14,7.3-21.6,9.7   l-8.5,12.9h147.6l-8.5-12.9C261.7,392.5,254.5,389.3,247.7,385.2z"/>

</g>

</svg>