<?xml version="1.0" ?>

<!-- Uploaded to: SVG Repo, www.svgrepo.com, Generator: SVG Repo Mixer Tools -->
<svg width="800px" height="800px" viewBox="0 0 512 512" id="Layer_1" version="1.1" xml:space="preserve" xmlns="http://www.w3.org/2000/svg" xmlns:xlink="http://www.w3.org/1999/xlink">
<style type="text/css">
.st0{fill:#7e22ce;}
</style>

<g>

<rect class="st0" height="55.4" width="331.5" x="105.2" y="342.3"/>

<path class="st0" d="M230.3,268.4c0.4,0,1.1-0.2,1.8-0.6c0.7-0.4,1.5-0.8,2.4-1.3c2.1-1.3,4.8-2.8,8.1-3.5c7.2-1.5,13.8,2,17.6,4.1   c6.2,3.3,12,3.9,17.3,1.8c0.6-0.3,1.3-0.4,2-0.5l-32.5-23.9l-15.2-11.2c-13.9,0.7-26.4,6.6-35.7,15.9c-9.9,9.9-16,23.5-16,38.6   c0,16.1,7,30.5,18,40.5h162.5l-73.8-54.3c0.7,3.3-1,6.6-4.2,8c-3.8,1.5-7.7,2.3-11.7,2.3c-5.8,0-11.7-1.6-17.5-4.7   c-2.9-1.5-6.1-3.1-8.2-2.7c-1,0.2-2.4,1-3.8,1.9c-1,0.6-2.1,1.2-3.3,1.8c-6.3,3.1-12.8,2.6-17-1.3c-2.8-2.6-3-7.1-0.4-9.9   C223.4,266.5,227.5,266.2,230.3,268.4z M220.2,304.5c1.8-3.4,6-4.8,9.4-3.1c4.2,2.2,7,3.4,10.1,3c2.8-0.4,5.7-1.6,8.8-2.8   c0.5-0.2,1.1-0.4,1.6-0.6c4.6-1.8,9.7-3.5,15.2-3.2c6.2,0.3,11.4,2.9,16,5.2c0.6,0.3,1.2,0.6,1.8,0.9c4.9,2.4,8.9,3.3,13.6,3   c0.6,0,1-0.1,1.4-0.2c1.1-2.8,3.9-4.6,7.1-4.4c3.8,0.3,6.7,3.7,6.4,7.6c-0.4,4.9-4.3,10.4-14.1,11c-0.8,0-1.6,0.1-2.4,0.1   c-6.1,0-11.8-1.4-18.1-4.5c-0.6-0.3-1.3-0.6-1.9-1c-3.7-1.8-7.1-3.6-10.4-3.7c-2.7-0.1-5.8,0.8-9.4,2.3c-0.5,0.2-1.1,0.4-1.6,0.6   c-3.6,1.4-7.6,3.1-12.1,3.7c-7.6,1-13.6-2-18.4-4.4C219.8,312.2,218.5,308,220.2,304.5z"/>

<path class="st0" d="M121.2,218.3c4.4,1,8.4,0.1,11.6-0.7l1.1-0.2c3.3-0.7,4.3-0.4,4.6-0.2c0.3,0.2,0.9,1.1,1,2.6   c0,0.4-0.3,1.7-0.5,2.5c-0.7,2.7-1.6,6.4-0.3,10.1c1,2.9,3.7,4.7,6.6,4.7c0.8,0,1.6-0.1,2.3-0.4c3.5-1.2,5.4-5,4.4-8.5   c0-0.5,0.3-1.7,0.5-2.4c0.5-2,1-4.2,0.9-6.6c-0.3-6.1-3.3-11.4-8-14.1c-5-2.9-10.4-2.2-14.6-1.3l-1.2,0.3c-2.2,0.5-4.2,0.9-5.4,0.7   c-1-0.2-2-1.5-2-2.5c0-1,1-2.3,2-2.5c3.8-0.9,6.1-4.7,5.2-8.4s-4.7-6.1-8.4-5.2c-7.3,1.7-12.8,8.7-12.7,16.2   C108.3,209.8,113.9,216.7,121.2,218.3z"/>

<path class="st0" d="M112.9,269.7c3.2,2.3,7.2,3.5,11.5,3.5c1.6,0,3.1-0.2,4.8-0.5c4.7-0.9,8.7-2.9,12.3-4.7   c3.5-1.7,4.9-5.9,3.1-9.4c-1.7-3.5-5.9-4.9-9.4-3.1c-3,1.5-5.9,3-8.7,3.5c-2.2,0.4-4.2,0.2-5.4-0.7c-1.2-0.9-2.3-2.8-3.2-6   c-0.2-0.7-0.4-1.4-0.6-2.1c-0.9-3.2-2-6.8-4.1-10.2c-4.9-7.8-14.4-10.6-23.6-6.9c-4.7,1.9-8.4,4.9-11.6,7.5c-3,2.4-3.4,6.9-1,9.8   c2.4,3,6.9,3.4,9.9,1c2.7-2.2,5.3-4.3,7.9-5.4c1.4-0.6,4.8-1.5,6.6,1.4c1.1,1.7,1.8,4.1,2.5,6.6c0.2,0.8,0.5,1.6,0.7,2.4   C105.7,260.4,107.9,266.1,112.9,269.7z"/>

<path class="st0" d="M351.1,136.3c-0.1,0.2-0.2,0.4-0.3,0.6C293,110,222.3,126.6,183,180l72.4,53.3l127.8,94.1l1.3,0.9h28.1   c25.5-45.2,22.7-100.3-4.9-142.3c0.2-0.1,0.4-0.2,0.6-0.4c8.6-7.3,13.5-17.9,13.5-29.1c0-21.1-17.1-38.2-38.2-38.2   C370.3,118.3,358.1,125,351.1,136.3z M293.4,163.5c-20.8,0-40.6,6.3-57.2,18.3c-1.2,0.9-2.7,1.3-4.1,1.3c-2.2,0-4.3-1-5.7-2.9   c-2.3-3.1-1.6-7.5,1.6-9.8c18.9-13.7,41.6-20.9,65.4-20.9c3.9,0,7,3.1,7,7S297.2,163.5,293.4,163.5z M383.6,132.3   c13.3,0,24.2,10.9,24.2,24.2c0,7-3,13.6-8.3,18.2c-7.1-8.8-15.5-16.8-25-23.8c-3.7-2.7-7.4-5.2-11.2-7.4   C367.7,136.4,375.2,132.3,383.6,132.3z"/>

<path class="st0" d="M322.9,424.3c-20.6,0-38.1,9.5-44.2,22.6l-110.8-7c-9.9-0.6-18.3,7.3-18.3,17.2l0,0c0,10,8.4,17.8,18.3,17.2   l110.8-7c6.1,13.1,23.5,22.6,44.2,22.6c25.7,0,46.4-14.7,46.4-32.8S348.6,424.3,322.9,424.3z"/>

<path class="st0" d="M173,71.7l112.2-7.1l5.7-0.4c2.9,9.1,9.5,16.6,18,20.6c0,0,9.3,1.2,14.3,1.2h39.7c3.9,0,7.1-3.3,7-7.2   c-0.1-3.8-3.5-6.8-7.3-6.8h-39.4c-4,0-7.8-0.8-11.3-2.5c0,0,0,0,0,0c-1.7-0.8-2.9-2.5-2.9-4.4v-4h55.2c3.8,0,7.2-3,7.3-6.8   c0.1-4-3.1-7.2-7-7.2h-55.5v-7.7c0,0,0,0,0,0c1,0,2-0.2,3-0.7c3.6-1.7,7.4-2.5,11.3-2.5h39.4c3.8,0,7.2-3,7.3-6.8   c0.1-4-3.1-7.2-7-7.2h-39.7c-4.9,0-14.3,1.2-14.3,1.2c-3.6,1.7-6.9,4-9.7,6.8c-4,4-7,9-8.6,14.6l-5.5-0.3L173,37.3   c-9.9-0.6-18.3,7.3-18.3,17.2C154.6,64.5,163,72.4,173,71.7z"/>

</g>

</svg>