<?xml version="1.0" ?>

<!-- Uploaded to: SVG Repo, www.svgrepo.com, Generator: SVG Repo Mixer Tools -->
<svg width="800px" height="800px" viewBox="0 0 512 512" id="Layer_1" version="1.1" xml:space="preserve" xmlns="http://www.w3.org/2000/svg" xmlns:xlink="http://www.w3.org/1999/xlink">
<style type="text/css">
.st0{fill:#7e22ce;}
</style>

<g>

<path class="st0" d="M273.8,32h-35.6c-13.1,0-24.2,8.8-27.6,20.8h90.8C298,40.8,286.9,32,273.8,32z"/>

<path class="st0" d="M455.6,468L353.1,365.5c3.9-1.3,7.4-3.4,10.3-6.3l40.4-40.4c4.9-4.9,7.7-11.5,7.7-18.5V152.8   c0-5.3-1.6-10.5-4.7-14.9L365.2,78c-4.9-7-12.9-11.2-21.5-11.2h-5.1h-50.4h-64.5h-30.5h-25c-8.6,0-16.6,4.2-21.5,11.2l-41.5,59.8   c-3,4.4-4.7,9.6-4.7,14.9v147.5c0,6.9,2.8,13.6,7.7,18.5l40.4,40.4c2.9,2.9,6.5,5.1,10.3,6.3L56.4,468c-2.7,2.7-2.7,7.2,0,9.9   c1.4,1.4,3.2,2.1,5,2.1s3.6-0.7,5-2.1l29.1-29.1h235.1c3.9,0,7-3.1,7-7s-3.1-7-7-7H109.3l66.1-66.1c0.6-0.6,1-1.3,1.4-2h16.4h30.5   h64.5h46.9c0.3,0.7,0.8,1.4,1.4,2l21,21H266c-3.9,0-7,3.1-7,7s3.1,7,7,7h105.6l74.2,74.2c1.4,1.4,3.2,2.1,5,2.1   c1.8,0,3.6-0.7,5-2.1C458.4,475.2,458.4,470.8,455.6,468z M282.7,113.7h50.2l31.6,45.6v57.5h-81.8V113.7z M201.6,326.4   c-12.9,0-23.8-8.8-26.9-20.8c-0.3,0-0.6,0.1-0.9,0.1h-21.6c-3.9,0-7-3.1-7-7s3.1-7,7-7h21.6c0.3,0,0.6,0,0.9,0.1   c3.1-12,13.9-20.8,26.9-20.8c15.3,0,27.8,12.4,27.8,27.8S216.9,326.4,201.6,326.4z M229.3,216.8h-81.8v-57.5l31.6-45.6h50.2V216.8z    M310.4,326.4c-15.3,0-27.8-12.4-27.8-27.8s12.4-27.8,27.8-27.8c12.9,0,23.8,8.8,26.9,20.8c0.3,0,0.6-0.1,0.9-0.1h21.6   c3.9,0,7,3.1,7,7s-3.1,7-7,7h-21.6c-0.3,0-0.6,0-0.9-0.1C334.2,317.5,323.4,326.4,310.4,326.4z"/>

<path class="st0" d="M205,389.7c-3.9,0-7,3.1-7,7s3.1,7,7,7h15.2c3.9,0,7-3.1,7-7s-3.1-7-7-7H205z"/>

<path class="st0" d="M384.4,432.5h-21.1c-3.9,0-7,3.1-7,7s3.1,7,7,7h21.1c3.9,0,7-3.1,7-7S388.3,432.5,384.4,432.5z"/>

</g>

</svg>