<?xml version="1.0" ?>

<!-- Uploaded to: SVG Repo, www.svgrepo.com, Generator: SVG Repo Mixer Tools -->
<svg width="800px" height="800px" viewBox="0 0 512 512" id="Layer_1" version="1.1" xml:space="preserve" xmlns="http://www.w3.org/2000/svg" xmlns:xlink="http://www.w3.org/1999/xlink">
<style type="text/css">
.st0{fill:#7e22ce;}
</style>

<g>

<polygon class="st0" points="140.8,473 413,473 421.9,442.7 120.9,442.7  "/>

<path class="st0" d="M65.3,357.8l46.5,70.9H426l20.8-70.9H65.3z M160.9,413.6c-8.1,0-14.7-6.6-14.7-14.6c0-8.1,6.6-14.7,14.7-14.7   c8.1,0,14.7,6.6,14.7,14.7C175.5,407,169,413.6,160.9,413.6z M213,413.6c-8.1,0-14.7-6.6-14.7-14.6c0-8.1,6.6-14.7,14.7-14.7   c8.1,0,14.7,6.6,14.7,14.7C227.7,407,221.1,413.6,213,413.6z"/>

<path class="st0" d="M357.6,301.3H256v-53.9H123.7v96.3h233.9V301.3z M160.9,302.6c-8.1,0-14.7-6.6-14.7-14.7   c0-8.1,6.6-14.6,14.7-14.6c8.1,0,14.7,6.6,14.7,14.6C175.5,296.1,169,302.6,160.9,302.6z M213,302.6c-8.1,0-14.7-6.6-14.7-14.7   c0-8.1,6.6-14.6,14.7-14.6c8.1,0,14.7,6.6,14.7,14.6C227.7,296.1,221.1,302.6,213,302.6z"/>

<path class="st0" d="M153.7,121.6c6.6-1,12.3-5,17.5-9c5.3-4,10.5-8.4,16.8-10.5c15.1-5.1,31.4,3.9,47.2,2   c11.5-1.4,22.1-8.9,27.2-19.4c5.1-10.5,4.4-23.5-1.7-33.4c-1.6-2.5-3.7-4.9-6.1-6.8c-3.8-2.8-8.3-4.3-12.7-3.1   c-7,2-10.9,10-17.9,11.9c-5.4,1.5-11.2-1.1-15.8-4.3c-4.6-3.2-8.8-7.3-14.1-9.2c-13.1-4.8-23.1,10.7-30.4,19   c-10.4,12-19.8,24.6-25.5,39.5c-1.9,4.9-3.4,10.5-1.3,15.4C139.5,119.9,147.1,122.7,153.7,121.6z"/>

<path class="st0" d="M309.1,94c4.8-0.3,9.2-3,12-6.9c3.3-4.5,4.3-10.5,2.6-15.8c-1.5-4.9-7.3-13.2-13.4-11.2   c-0.1,0-0.3,0.1-0.4,0.1c-4.3,1.7-12.3,11-14.3,15.2c-1.9,4.1-1.5,9.1,1.1,12.8C299.4,92.2,304.3,94.4,309.1,94z"/>

<polygon class="st0" points="337,160.2 321.8,160.2 328.3,287.3 285.4,287.3 291.9,160.2 276.7,160.2 276.7,126.3 337,126.3  "/>

</g>

</svg>