<?xml version="1.0" ?>

<!-- Uploaded to: SVG Repo, www.svgrepo.com, Generator: SVG Repo Mixer Tools -->
<svg width="800px" height="800px" viewBox="0 0 512 512" id="Layer_1" version="1.1" xml:space="preserve" xmlns="http://www.w3.org/2000/svg" xmlns:xlink="http://www.w3.org/1999/xlink">
<style type="text/css">
.st0{fill:#7e22ce;}
</style>

<g>

<path class="st0" d="M153.3,321.7c-15.1-25.8-22.1-55.8-19.6-85.9c2.8-34.4,17.8-66.9,42.3-91.3c5.9-5.9,12.2-11.2,18.9-16V27.1   H78.3v369.3c0.1,0,0.2,0,0.3,0L153.3,321.7z"/>

<polygon class="st0" points="194.8,402.1 194.8,384 176.8,402.1  "/>

<path class="st0" d="M339.4,114.7V84L208.8,27.1v92.6c21.5-11.8,45.6-18,70.3-18C299.9,101.7,320.6,106.2,339.4,114.7z"/>

<path class="st0" d="M240.8,388.6c-11.1-3-21.8-7.4-32-12.9v26.4L339.4,459v-78.2c-18.8,8.5-39.5,13-60.2,13   C266.1,393.7,253.2,392,240.8,388.6z"/>

<path class="st0" d="M353.4,77.9v44c10.6,6.2,20.3,13.8,29,22.5c27.6,27.6,42.8,64.2,42.8,103.3c0,39-15.2,75.7-42.8,103.3   c-8.7,8.7-18.5,16.3-29,22.6v79.4L470,402.1v-375L353.4,77.9z"/>

<path class="st0" d="M372.6,154.4c-10-10-21.2-18-33.1-24.2c-41.1-21.1-91-19.2-130.6,5.8c-8.2,5.1-15.9,11.3-23,18.4   c-46.1,46.1-51,117.7-14.7,169.3l-78.5,78.5l-8.6,8.6c-11.1-1.4-22.7,2.1-31.2,10.6c-14.6,14.6-14.6,38.2,0,52.8   c14.6,14.6,38.2,14.6,52.8,0c8.5-8.5,12-20.1,10.6-31.2l40.8-40.8l46.3-46.3c1.8,1.3,3.7,2.5,5.5,3.7c39.5,25,89.4,26.9,130.6,5.8   c11.9-6.1,23.2-14.2,33.1-24.2C424.1,289.5,424.1,205.9,372.6,154.4z M339.4,324.2c-38.2,30.2-93.8,27.6-129-7.7   c-0.5-0.5-1-1-1.5-1.6c-36-37.6-36-96.9,0-134.5c0.5-0.5,1-1,1.5-1.5c35.3-35.3,90.8-37.8,129-7.7c3,2.3,5.9,4.9,8.6,7.7   c38,38,38,99.6,0,137.7C345.3,319.3,342.4,321.9,339.4,324.2z"/>

</g>

</svg>