<?xml version="1.0" ?>

<!-- Uploaded to: SVG Repo, www.svgrepo.com, Generator: SVG Repo Mixer Tools -->
<svg width="800px" height="800px" viewBox="0 0 512 512" id="Layer_1" version="1.1" xml:space="preserve" xmlns="http://www.w3.org/2000/svg" xmlns:xlink="http://www.w3.org/1999/xlink">
<style type="text/css">
.st0{fill:#7e22ce;}
</style>

<g>

<path class="st0" d="M37.3,356c3.2,25.9,13.4,50.5,33.1,73.5c23.4,27.3,57.8,42.7,93.7,42.7h186.5c64,0,118.2-48.5,123.7-112.3   c0.1-1.3,0.2-2.5,0.3-3.8H37.3z M163.7,441.5c-27.4,0-53.1-11.6-70.5-31.9c-3.3-3.9-6.4-7.9-9.1-12c-2.1-3.2-1.3-7.6,2-9.7   c3.2-2.1,7.6-1.3,9.7,2c2.4,3.6,5.1,7.2,8.1,10.6c14.7,17.2,36.5,27,59.8,27c3.9,0,7,3.1,7,7S167.6,441.5,163.7,441.5z"/>

<rect class="st0" height="33.6" width="148.2" x="181.9" y="308.4"/>

<path class="st0" d="M272.5,252.2h11.4c0.6-3.1,1.2-6.3,1.8-9.4c0.3-1.5,0.5-3.1,0.8-4.6h-14V110.1H290c-0.2-1.8-0.4-3.6-0.6-5.3   c-0.3-2.9-0.7-5.8-1.1-8.7h-15.7V56.4c0-9.1-7.4-16.5-16.5-16.5c-9.1,0-16.5,7.4-16.5,16.5v252h33V252.2z"/>

<path class="st0" d="M239.5,277.4v-4.3c-29-11.2-50.5-51.3-50.5-99c0-47.7,21.5-87.8,50.5-99v-4.3c-58.2,7-103,50.6-103,103.3   C136.5,226.8,181.3,270.4,239.5,277.4z"/>

<path class="st0" d="M292.8,277.4h120.3C405.4,164,365.3,86.2,292.8,44.1c4.5,19.3,8.1,38.9,10.5,58.9c5.4,44.9,5,92-3.8,142.2   C297.6,255.8,295.4,266.5,292.8,277.4z"/>

</g>

</svg>