<?xml version="1.0" ?>

<!-- Uploaded to: SVG Repo, www.svgrepo.com, Generator: SVG Repo Mixer Tools -->
<svg width="800px" height="800px" viewBox="0 0 512 512" id="Layer_1" version="1.1" xml:space="preserve" xmlns="http://www.w3.org/2000/svg" xmlns:xlink="http://www.w3.org/1999/xlink">
<style type="text/css">
.st0{fill:#7e22ce;}
</style>

<g>

<path class="st0" d="M443.9,109.1h-50.8V64.2c8.7-1,15.5-8.3,15.5-17.3v0c0-9.6-7.8-17.4-17.4-17.4h-87.6   c-9.6,0-17.4,7.8-17.4,17.4v0c0,8.6,6.2,15.7,14.4,17.2v45.1h-55.1c-11.8,0-21.4,9.6-21.4,21.5v24.6h38c12.4,0,23.3,6.7,29.2,16.7   h28.2v0h87.7c3.9,0,7,3.1,7,7s-3.1,7-7,7H389v9.9c0,3.9-3.1,7-7,7c-3.9,0-7-3.1-7-7v-9.9h-77.9c-0.4,0-0.8,0-1.2-0.1   c0,0-0.1,0-0.1,0c0,0,0,0,0,0c0.1,1.1,0.2,2.2,0.2,3.3v44.9h48.8c20.9,0,38,17,38,38v186.8c0,9.1-3.2,17.4-8.6,24h69.8   c11.8,0,21.4-9.6,21.4-21.4V130.5C465.3,118.7,455.7,109.1,443.9,109.1z M314.6,109.1V64.3h64.5v44.8H314.6z"/>

<path class="st0" d="M46.7,271.9v186.8c0,13.3,10.7,24,24,24h33.6V247.9H70.7C57.4,247.9,46.7,258.6,46.7,271.9z"/>

<path class="st0" d="M344.7,247.9h-33.6v234.7h33.6c13.2,0,24-10.7,24-24V271.9C368.7,258.6,357.9,247.9,344.7,247.9z"/>

<rect class="st0" height="234.7" width="62.1" x="176.6" y="247.9"/>

<path class="st0" d="M281.9,247.9V189c0-11-8.9-19.9-19.9-19.9H153.4c-11,0-19.9,8.9-19.9,19.9v58.9c0,0,0,0,0,0h-15.2v234.7h44.3   V247.9h-15.2c0,0,0,0,0,0V189c0-3.3,2.6-5.9,5.9-5.9H262c3.3,0,5.9,2.6,5.9,5.9v58.9c0,0,0,0,0,0h-15.2v234.7h44.3V247.9   L281.9,247.9C281.9,247.9,281.9,247.9,281.9,247.9z"/>

</g>

</svg>