<svg id="ecAlW6Z4v3M1" xmlns="http://www.w3.org/2000/svg" xmlns:xlink="http://www.w3.org/1999/xlink" viewBox="0 0 300 300" shape-rendering="geometricPrecision" text-rendering="geometricPrecision"><g transform="matrix(.9904 0 0 0.9904 1.324426-1.53731)"><g transform="translate(-3.294344 164.836491)"><g transform="matrix(1.767612 0 0 1.690047-81.648044-103.507076)"><rect width="56.214149" height="56.214149" rx="0" ry="0" transform="matrix(.707107 0.707107-.707107 0.707107 150 64.361493)" fill="#a855f7" stroke-width="3" stroke-miterlimit="1"/></g><g transform="matrix(1.767612 0 0 1.690047-81.648044-103.507076)"><rect width="56.214149" height="56.214149" rx="0" ry="0" transform="matrix(.507256 0.507256-.507256 0.507256 150 75.595908)" fill="#fff" stroke-width="3" stroke-miterlimit="1"/></g></g><g transform="translate(-88.065417 80.065418)"><g transform="matrix(1.767612 0 0 1.690047-81.648044-103.507076)"><rect width="56.214149" height="56.214149" rx="0" ry="0" transform="matrix(.707107 0.707107-.707107 0.707107 150 64.361493)" fill="#a855f7" stroke-width="3" stroke-miterlimit="1"/></g><g transform="matrix(1.767612 0 0 1.690047-81.648044-103.507076)"><rect width="56.214149" height="56.214149" rx="0" ry="0" transform="matrix(.507256 0.507256-.507256 0.507256 150 75.595908)" fill="#fff" stroke-width="3" stroke-miterlimit="1"/></g></g><g transform="translate(-3-4.999999)"><g transform="matrix(1.767612 0 0 1.690047-81.648044-103.507076)"><rect width="56.214149" height="56.214149" rx="0" ry="0" transform="matrix(.707107 0.707107-.707107 0.707107 150 64.361493)" fill="#a855f7" stroke-width="3" stroke-miterlimit="1"/></g><g transform="matrix(1.767612 0 0 1.690047-81.648044-103.507076)"><rect width="56.214149" height="56.214149" rx="0" ry="0" transform="matrix(.507256 0.507256-.507256 0.507256 150 75.595908)" fill="#fff" stroke-width="3" stroke-miterlimit="1"/></g></g></g></svg>
